<?xml version="1.0" ?><!DOCTYPE svg  PUBLIC '-//W3C//DTD SVG 1.1//EN'  'http://www.w3.org/Graphics/SVG/1.1/DTD/svg11.dtd'><svg id="Calque_1" style="enable-background:new 0 0 100 100;" version="1.1" viewBox="0 0 100 100" xml:space="preserve" xmlns="http://www.w3.org/2000/svg" xmlns:xlink="http://www.w3.org/1999/xlink"><g><g><path d="M5273.1,2400.1v-2c0-2.8-5-4-9.7-4s-9.7,1.3-9.7,4v2c0,1.8,0.7,3.6,2,4.9l5,4.9c0.3,0.3,0.4,0.6,0.4,1v6.4     c0,0.4,0.2,0.7,0.6,0.8l2.9,0.9c0.5,0.1,1-0.2,1-0.8v-7.2c0-0.4,0.2-0.7,0.4-1l5.1-5C5272.4,2403.7,5273.1,2401.9,5273.1,2400.1z      M5263.4,2400c-4.8,0-7.4-1.3-7.5-1.8v0c0.1-0.5,2.7-1.8,7.5-1.8c4.8,0,7.3,1.3,7.5,1.8C5270.7,2398.7,5268.2,2400,5263.4,2400z"/><path d="M5268.4,2410.3c-0.6,0-1,0.4-1,1c0,0.6,0.4,1,1,1h4.3c0.6,0,1-0.4,1-1c0-0.6-0.4-1-1-1H5268.4z"/><path d="M5272.7,2413.7h-4.3c-0.6,0-1,0.4-1,1c0,0.6,0.4,1,1,1h4.3c0.6,0,1-0.4,1-1C5273.7,2414.1,5273.3,2413.7,5272.7,2413.7z"/><path d="M5272.7,2417h-4.3c-0.6,0-1,0.4-1,1c0,0.6,0.4,1,1,1h4.3c0.6,0,1-0.4,1-1C5273.7,2417.5,5273.3,2417,5272.7,2417z"/></g><path d="M84.1,19.2c-11-0.9-21.3-5.6-29.1-13.4L53,3.7c-0.8-0.8-1.9-1.2-3-1.2c-1.1,0-2.2,0.4-3,1.2L45,5.8    c-7.8,7.8-18.1,12.5-29.1,13.4c-2.2,0.2-3.9,2-3.9,4.2v12.1c0,25.4,13.8,49,35.9,61.5c0.6,0.4,1.4,0.5,2.1,0.5    c0.7,0,1.4-0.2,2.1-0.5C74.2,84.5,88,60.9,88,35.5V23.4C88,21.2,86.3,19.4,84.1,19.2z M70.5,40.1l-22,24.8c-0.7,0.8-1.9,0.8-2.6,0    L31.7,50c-0.7-0.7-0.7-1.8,0-2.5l3.5-3.5c0.7-0.7,1.7-0.7,2.4-0.1l7.9,6.9c0.7,0.6,1.8,0.6,2.5-0.1l16.1-16.4    c0.7-0.7,1.8-0.7,2.5-0.1l3.6,3.3C71.1,38.3,71.1,39.4,70.5,40.1z"/></g></svg>